<svg width="30" height="31" viewBox="0 0 30 31" fill="none" xmlns="http://www.w3.org/2000/svg">
<path d="M3.75 23.25V12C3.75 11.337 4.01339 10.7011 4.48223 10.2322C4.95107 9.76339 5.58696 9.5 6.25 9.5H7.4125C7.82398 9.50006 8.22912 9.39856 8.59196 9.20449C8.9548 9.01042 9.26413 8.72979 9.4925 8.3875L10.5075 6.8625C10.7359 6.52021 11.0452 6.23958 11.408 6.04551C11.7709 5.85144 12.176 5.74994 12.5875 5.75H17.4125C17.824 5.74994 18.2291 5.85144 18.592 6.04551C18.9548 6.23958 19.2641 6.52021 19.4925 6.8625L20.5075 8.3875C20.7359 8.72979 21.0452 9.01042 21.408 9.20449C21.7709 9.39856 22.176 9.50006 22.5875 9.5H23.75C24.413 9.5 25.0489 9.76339 25.5178 10.2322C25.9866 10.7011 26.25 11.337 26.25 12V23.25C26.25 23.913 25.9866 24.5489 25.5178 25.0178C25.0489 25.4866 24.413 25.75 23.75 25.75H6.25C5.58696 25.75 4.95107 25.4866 4.48223 25.0178C4.01339 24.5489 3.75 23.913 3.75 23.25Z" stroke="#F2E6FC" stroke-width="2" stroke-linecap="round" stroke-linejoin="round"/>
<path d="M15 20.75C17.0711 20.75 18.75 19.0711 18.75 17C18.75 14.9289 17.0711 13.25 15 13.25C12.9289 13.25 11.25 14.9289 11.25 17C11.25 19.0711 12.9289 20.75 15 20.75Z" stroke="#F2E6FC" stroke-width="2" stroke-linecap="round" stroke-linejoin="round"/>
</svg>
