<svg width="41" height="41" viewBox="0 0 41 41" fill="none" xmlns="http://www.w3.org/2000/svg">
<path d="M18.7509 23.194L15.7576 20.2107C15.602 20.0551 15.4126 19.9718 15.1892 19.9607C14.9648 19.9495 14.7609 20.0362 14.5776 20.2207C14.3998 20.3984 14.3109 20.5951 14.3109 20.8107C14.3109 21.0262 14.3998 21.2229 14.5776 21.4007L17.8076 24.6307C18.0776 24.8995 18.392 25.034 18.7509 25.034C19.1098 25.034 19.4242 24.8995 19.6942 24.6307L26.4242 17.9007C26.5864 17.7384 26.6714 17.5473 26.6792 17.3273C26.687 17.1062 26.602 16.904 26.4242 16.7207C26.2409 16.5373 26.0426 16.444 25.8292 16.4407C25.6159 16.4373 25.4181 16.5273 25.2359 16.7107L18.7509 23.194ZM14.9509 35.1707L12.7576 31.504L8.62255 30.6307C8.29144 30.5695 8.02755 30.3918 7.83088 30.0973C7.63422 29.804 7.55311 29.4918 7.58755 29.1607L7.98255 24.9007L5.17755 21.7007C4.942 21.4595 4.82422 21.1629 4.82422 20.8107C4.82422 20.4584 4.942 20.1618 5.17755 19.9207L7.98255 16.7207L7.58755 12.4623C7.55422 12.1301 7.63533 11.8173 7.83088 11.524C8.02755 11.2307 8.29144 11.0529 8.62255 10.9907L12.7559 10.119L14.9492 6.45232C15.1292 6.15454 15.3709 5.94899 15.6742 5.83565C15.9776 5.72121 16.2914 5.73621 16.6159 5.88065L20.5009 7.52232L24.3842 5.88065C24.7098 5.73621 25.0242 5.72121 25.3276 5.83565C25.6309 5.94899 25.8726 6.15454 26.0526 6.45232L28.2442 10.119L32.3792 10.9907C32.7103 11.0529 32.9742 11.2307 33.1709 11.524C33.3676 11.8173 33.4487 12.1301 33.4142 12.4623L33.0209 16.7207L35.8242 19.9207C36.0598 20.1618 36.1776 20.4584 36.1776 20.8107C36.1776 21.1629 36.0598 21.4601 35.8242 21.7023L33.0209 24.9007L33.4142 29.159C33.4476 29.4912 33.3664 29.804 33.1709 30.0973C32.9742 30.3918 32.7103 30.5695 32.3792 30.6307L28.2459 31.504L26.0526 35.1707C25.8726 35.4673 25.6309 35.6729 25.3276 35.7873C25.0242 35.9018 24.7103 35.8862 24.3859 35.7407L20.5009 34.099L16.6176 35.7407C16.292 35.8851 15.9776 35.9001 15.6742 35.7857C15.3709 35.6723 15.1292 35.4668 14.9492 35.169M16.2509 34.0607L20.5009 32.2923L24.7709 34.0607L27.1676 30.0606L31.7509 29.0423L31.3342 24.3107L34.4176 20.8107L31.3342 17.2923L31.7509 12.5607L27.1676 11.5607L24.7509 7.56065L20.5009 9.33065L16.2326 7.56065L13.8342 11.5607L9.25089 12.5607L9.66755 17.2923L6.58422 20.8107L9.66755 24.3107L9.25089 29.0607L13.8342 30.0606L16.2509 34.0607Z" fill="white"/>
</svg>
