<svg width="34" height="35" viewBox="0 0 34 35" fill="none" xmlns="http://www.w3.org/2000/svg">
<path d="M15.5911 3.14404L25.93 6.37404C26.2183 6.46406 26.4704 6.64389 26.6493 6.88728C26.8282 7.13068 26.9246 7.42488 26.9245 7.72696V10.2274H29.7578C30.1335 10.2274 30.4939 10.3766 30.7595 10.6423C31.0252 10.908 31.1745 11.2683 31.1745 11.644V14.4774H12.7578V11.644C12.7578 11.2683 12.9071 10.908 13.1727 10.6423C13.4384 10.3766 13.7988 10.2274 14.1745 10.2274H24.0911V8.76821L15.5911 6.11054L7.09115 8.76821V19.2572C7.09094 20.1245 7.28983 20.9803 7.6725 21.7587C8.05516 22.537 8.61138 23.2171 9.29831 23.7466L9.56606 23.9393L15.5911 28.0476L20.949 24.394H14.1745C13.7988 24.394 13.4384 24.2448 13.1727 23.9791C12.9071 23.7134 12.7578 23.3531 12.7578 22.9774V17.3107H31.1745V22.9774C31.1745 23.3531 31.0252 23.7134 30.7595 23.9791C30.4939 24.2448 30.1335 24.394 29.7578 24.394L25.1961 24.3955C24.6479 25.118 23.9821 25.7555 23.2128 26.2796L15.5911 31.4774L7.96948 26.281C6.82555 25.5011 5.88946 24.4535 5.24259 23.2294C4.59573 22.0053 4.25767 20.6417 4.25781 19.2572V7.72696C4.25798 7.42513 4.35455 7.13124 4.53344 6.88813C4.71233 6.64502 4.96419 6.46541 5.25231 6.37546L15.5911 3.14404Z" fill="white"/>
</svg>
