<svg width="48" height="49" viewBox="0 0 48 49" fill="none" xmlns="http://www.w3.org/2000/svg">
<path d="M17 37.6025V31.8105H13C12.4696 31.8105 11.9609 31.5998 11.5858 31.2248C11.2107 30.8497 11 30.341 11 29.8105V15.8105C11 15.2801 11.2107 14.7714 11.5858 14.3963C11.9609 14.0213 12.4696 13.8105 13 13.8105H35C35.5304 13.8105 36.0391 14.0213 36.4142 14.3963C36.7893 14.7714 37 15.2801 37 15.8105V29.8105C37 30.341 36.7893 30.8497 36.4142 31.2248C36.0391 31.5998 35.5304 31.8105 35 31.8105H24L17.854 37.9565C17.7841 38.0267 17.6949 38.0744 17.5978 38.0938C17.5007 38.1132 17.4 38.1032 17.3085 38.0653C17.2171 38.0274 17.1389 37.9632 17.084 37.8808C17.0291 37.7984 16.9998 37.7016 17 37.6025Z" stroke="white" stroke-width="1.5"/>
<path d="M17 25.8105H31M17 19.8105H31" stroke="white" stroke-width="1.5" stroke-linecap="round"/>
</svg>
