<svg width="30" height="31" viewBox="0 0 30 31" fill="none" xmlns="http://www.w3.org/2000/svg">
<path d="M18.2812 3.29688C20.9363 3.29688 22.9341 4.71719 23.9062 6.55375C23.9117 6.09818 24.0646 5.65664 24.3419 5.29517C24.6192 4.9337 25.0062 4.67174 25.4448 4.54847C25.8834 4.42521 26.3501 4.44726 26.7751 4.61134C27.2002 4.77542 27.5607 5.07271 27.8027 5.45872C28.0447 5.84473 28.1552 6.29872 28.1177 6.75278C28.0802 7.20684 27.8967 7.63655 27.5946 7.97763C27.2926 8.31872 26.8882 8.55284 26.442 8.64497C25.9958 8.7371 25.5318 8.6823 25.1194 8.48875L25.0809 8.52344L24.5588 8.92844C24.6112 10.2653 24.1406 11.6097 23.0428 12.6241C21.9047 13.6778 20.1609 14.3125 17.8125 14.3125V23.6875H18.2812C18.9029 23.6875 19.499 23.9344 19.9385 24.374C20.3781 24.8135 20.625 25.4096 20.625 26.0312C20.625 26.6529 20.3781 27.249 19.9385 27.6885C19.499 28.1281 18.9029 28.375 18.2812 28.375H4.21875C3.59715 28.375 3.00101 28.1281 2.56147 27.6885C2.12193 27.249 1.875 26.6529 1.875 26.0312C1.875 25.4096 2.12193 24.8135 2.56147 24.374C3.00101 23.9344 3.59715 23.6875 4.21875 23.6875H4.6875V10.5625H4.21875C3.59715 10.5625 3.00101 10.3156 2.56147 9.87603C2.12193 9.43649 1.875 8.84035 1.875 8.21875C1.875 7.59715 2.12193 7.00101 2.56147 6.56147C3.00101 6.12193 3.59715 5.875 4.21875 5.875H18.2812C18.9029 5.875 19.499 6.12193 19.9385 6.56147C20.3781 7.00101 20.625 7.59715 20.625 8.21875C20.625 8.84035 20.3781 9.43649 19.9385 9.87603C19.499 10.3156 18.9029 10.5625 18.2812 10.5625H17.8125V12.3306L22.9969 8.03406C22.4906 6.28469 20.7966 4.70312 18.2812 4.70312C18.0948 4.70312 17.9159 4.62905 17.7841 4.49718C17.6522 4.36532 17.5781 4.18648 17.5781 4C17.5781 3.81352 17.6522 3.63468 17.7841 3.50282C17.9159 3.37095 18.0948 3.29688 18.2812 3.29688ZM16.875 12.9062V11.5H5.625V12.9062H16.875ZM5.625 14.3125V15.25H14.2884L15.42 14.3125H5.625ZM5.625 16.6562V17.5938H11.46L12.5916 16.6562H5.625ZM5.625 19V19.9375H8.63156L9.76312 19H5.625ZM5.625 21.3438V22.75H16.875V21.3438H8.56687L8.17594 21.6466C8.07041 21.7317 7.93604 21.7727 7.80095 21.761C7.66587 21.7493 7.54056 21.6858 7.45125 21.5837C7.38974 21.5168 7.34903 21.4334 7.33406 21.3438H5.625ZM16.875 19.9375V19H11.5856L10.3781 19.9375H16.875ZM16.875 17.5938V16.6562H14.6053L13.3969 17.5938H16.875ZM16.875 15.25V14.8938L16.4156 15.25H16.875ZM19.6547 12.7366C20.7534 12.5144 21.5456 12.0934 22.0884 11.5919C22.545 11.17 22.8478 10.6684 23.0119 10.1294L19.6547 12.7366ZM26.7188 6.57812C26.7188 6.39164 26.6447 6.2128 26.5128 6.08094C26.3809 5.94908 26.2021 5.875 26.0156 5.875C25.8291 5.875 25.6503 5.94908 25.5184 6.08094C25.3866 6.2128 25.3125 6.39164 25.3125 6.57812C25.3125 6.76461 25.3866 6.94345 25.5184 7.07531C25.6503 7.20717 25.8291 7.28125 26.0156 7.28125C26.2021 7.28125 26.3809 7.20717 26.5128 7.07531C26.6447 6.94345 26.7188 6.76461 26.7188 6.57812Z" fill="#F2E6FC"/>
</svg>
