<svg width="30" height="31" viewBox="0 0 30 31" fill="none" xmlns="http://www.w3.org/2000/svg">
<path d="M12.5 6.5L15 4M10 20.25L20 10.25M15 26.5L17.5 24M20.625 24C21.4538 24 22.2487 23.6708 22.8347 23.0847C23.4208 22.4987 23.75 21.7038 23.75 20.875C23.75 20.0462 23.4208 19.2513 22.8347 18.6653C22.2487 18.0792 21.4538 17.75 20.625 17.75C19.7962 17.75 19.0013 18.0792 18.4153 18.6653C17.8292 19.2513 17.5 20.0462 17.5 20.875C17.5 21.7038 17.8292 22.4987 18.4153 23.0847C19.0013 23.6708 19.7962 24 20.625 24ZM9.375 12.75C10.2038 12.75 10.9987 12.4208 11.5847 11.8347C12.1708 11.2487 12.5 10.4538 12.5 9.625C12.5 8.7962 12.1708 8.00134 11.5847 7.41529C10.9987 6.82924 10.2038 6.5 9.375 6.5C8.5462 6.5 7.75134 6.82924 7.16529 7.41529C6.57924 8.00134 6.25 8.7962 6.25 9.625C6.25 10.4538 6.57924 11.2487 7.16529 11.8347C7.75134 12.4208 8.5462 12.75 9.375 12.75ZM6.875 26.5C7.7038 26.5 8.49866 26.1708 9.08471 25.5847C9.67076 24.9987 10 24.2038 10 23.375C10 22.5462 9.67076 21.7513 9.08471 21.1653C8.49866 20.5792 7.7038 20.25 6.875 20.25C6.0462 20.25 5.25134 20.5792 4.66529 21.1653C4.07924 21.7513 3.75 22.5462 3.75 23.375C3.75 24.2038 4.07924 24.9987 4.66529 25.5847C5.25134 26.1708 6.0462 26.5 6.875 26.5ZM23.125 10.25C23.9538 10.25 24.7487 9.92076 25.3347 9.33471C25.9208 8.74866 26.25 7.9538 26.25 7.125C26.25 6.2962 25.9208 5.50134 25.3347 4.91529C24.7487 4.32924 23.9538 4 23.125 4C22.2962 4 21.5013 4.32924 20.9153 4.91529C20.3292 5.50134 20 6.2962 20 7.125C20 7.9538 20.3292 8.74866 20.9153 9.33471C21.5013 9.92076 22.2962 10.25 23.125 10.25Z" stroke="#F2E6FC" stroke-width="2" stroke-linecap="round" stroke-linejoin="round"/>
</svg>
