<svg width="24" height="28" viewBox="0 0 24 28" fill="none" xmlns="http://www.w3.org/2000/svg">
<path d="M12.0017 5.1784C12.229 5.1784 12.447 5.08809 12.6078 4.92735C12.7685 4.7666 12.8588 4.54858 12.8588 4.32125C12.8588 4.09393 12.7685 3.87591 12.6078 3.71516C12.447 3.55442 12.229 3.46411 12.0017 3.46411C11.7743 3.46411 11.5563 3.55442 11.3956 3.71516C11.2348 3.87591 11.1445 4.09393 11.1445 4.32125C11.1445 4.54858 11.2348 4.7666 11.3956 4.92735C11.5563 5.08809 11.7743 5.1784 12.0017 5.1784Z" fill="#F2E6FC"/>
<path fill-rule="evenodd" clip-rule="evenodd" d="M7.64143 5.46907C7.02171 2.68079 9.144 0.0356445 12 0.0356445C14.856 0.0356445 16.9774 2.68079 16.3577 5.46907L16.0791 6.72393C15.9851 7.14679 16.0546 7.58958 16.2737 7.96327C16.4929 8.33695 16.8453 8.61383 17.2603 8.73822L20.946 9.84393C21.7399 10.0821 22.4477 10.5454 22.9837 11.1776C23.5196 11.8099 23.8608 12.584 23.9657 13.4062C23.9886 13.5176 24 13.6322 24 13.7499V15.4642L23.9983 15.5354L23.5877 25.3839C23.5713 25.7778 23.448 26.1597 23.2309 26.4888C23.0138 26.8178 22.7112 27.0816 22.3556 27.2516C22 27.4217 21.6047 27.4917 21.2123 27.4541C20.8199 27.4165 20.4452 27.2727 20.1283 27.0382C19.7561 27.3162 19.3037 27.4657 18.8391 27.4642C18.3591 27.4642 17.9134 27.3074 17.5534 27.0399C17.182 27.3166 16.7309 27.4655 16.2677 27.4642C15.7124 27.4645 15.1783 27.2508 14.7763 26.8676C14.3755 27.2522 13.8411 27.466 13.2857 27.4642C12.8057 27.4642 12.36 27.3074 12 27.0399C11.64 27.3074 11.1943 27.4642 10.7143 27.4642C10.1586 27.4663 9.62384 27.2524 9.22286 26.8676C8.82187 27.2524 8.28712 27.4663 7.73143 27.4642C7.26827 27.4655 6.81717 27.3166 6.44571 27.0399C6.08571 27.3074 5.64 27.4642 5.16 27.4642C4.69576 27.4655 4.24366 27.316 3.87171 27.0382C3.55484 27.2729 3.18001 27.4169 2.78747 27.4546C2.39494 27.4924 1.99955 27.4224 1.64377 27.2523C1.288 27.0822 0.985289 26.8184 0.768167 26.4892C0.551045 26.1601 0.427715 25.7779 0.411429 25.3839L0.00171437 15.5354L0 15.4642V13.7499C0 13.6328 0.0114285 13.5191 0.0342857 13.4088C0.138774 12.5861 0.479684 11.8115 1.01568 11.1787C1.55167 10.546 2.25973 10.0823 3.054 9.84393L6.73971 8.73822C7.15466 8.61383 7.50714 8.33695 7.72626 7.96327C7.94538 7.58958 8.01491 7.14679 7.92086 6.72393L7.64143 5.46907ZM9.31543 5.09707L9.594 6.35279C9.7819 7.19827 9.64285 8.08354 9.2048 8.8307C8.76674 9.57787 8.06213 10.1316 7.23257 10.3805L3.54686 11.4862C3.09212 11.6227 2.68404 11.8824 2.36785 12.2366C2.05165 12.5907 1.83968 13.0255 1.75543 13.4928H22.2454C22.1611 13.0254 21.949 12.5906 21.6327 12.2364C21.3163 11.8822 20.908 11.6226 20.4531 11.4862L16.7674 10.3805C15.9377 10.1315 15.2329 9.57773 14.7949 8.83037C14.3568 8.08302 14.2179 7.19754 14.406 6.35193L14.6846 5.09707C14.7743 4.69488 14.7725 4.27766 14.6793 3.87625C14.5862 3.47483 14.404 3.09948 14.1463 2.77793C13.8886 2.45638 13.5619 2.19685 13.1904 2.0185C12.8189 1.84016 12.4121 1.74757 12 1.74757C11.5879 1.74757 11.1811 1.84016 10.8096 2.0185C10.4381 2.19685 10.1114 2.45638 9.85372 2.77793C9.596 3.09948 9.41383 3.47483 9.32066 3.87625C9.22748 4.27766 9.2257 4.69488 9.31543 5.09707ZM22.2857 14.3499H1.71429V15.4642L2.12486 25.3128C2.12916 25.4291 2.17778 25.5393 2.26074 25.621C2.34371 25.7026 2.45474 25.7494 2.5711 25.7518C2.68746 25.7542 2.80034 25.7121 2.88661 25.6339C2.97288 25.5558 3.02602 25.4477 3.03514 25.3316L3.82371 15.8731C3.83003 15.7559 3.88227 15.646 3.96912 15.5671C4.05597 15.4882 4.17042 15.4468 4.28764 15.4517C4.40486 15.4567 4.51539 15.5077 4.59526 15.5936C4.67514 15.6796 4.7179 15.7935 4.71429 15.9108V25.3034C4.70928 25.4216 4.75145 25.5369 4.8315 25.6241C4.91155 25.7112 5.02293 25.7629 5.14114 25.7679C5.25935 25.7729 5.37471 25.7308 5.46183 25.6507C5.54896 25.5707 5.60071 25.4593 5.60571 25.3411L6.39429 15.8739C6.39917 15.7557 6.45082 15.6443 6.53786 15.5642C6.62491 15.484 6.74022 15.4418 6.85843 15.4466C6.97664 15.4515 7.08807 15.5032 7.1682 15.5902C7.24833 15.6773 7.2906 15.7926 7.28571 15.9108V25.3034C7.28324 25.3619 7.29231 25.4203 7.31243 25.4754C7.33254 25.5304 7.36329 25.5809 7.40293 25.6241C7.48298 25.7112 7.59436 25.7629 7.71257 25.7679C7.83078 25.7729 7.94614 25.7308 8.03326 25.6507C8.12039 25.5707 8.17214 25.4593 8.17714 25.3411L8.96571 15.8825C8.97641 15.7678 9.03015 15.6613 9.11614 15.5846C9.20213 15.5079 9.31398 15.4665 9.4292 15.4689C9.54442 15.4713 9.65446 15.5172 9.73719 15.5975C9.81993 15.6777 9.86921 15.7863 9.87514 15.9014L10.2677 25.3214C10.2677 25.4398 10.3148 25.5534 10.3985 25.6371C10.4823 25.7209 10.5958 25.7679 10.7143 25.7679C10.8327 25.7679 10.9463 25.7209 11.0301 25.6371C11.1138 25.5534 11.1609 25.4398 11.1609 25.3214L11.5534 15.8928C11.5534 15.7743 11.6005 15.6608 11.6842 15.577C11.768 15.4933 11.8816 15.4462 12 15.4462C12.1184 15.4462 12.232 15.4933 12.3158 15.577C12.3995 15.6608 12.4466 15.7743 12.4466 15.8928L12.8391 25.3214C12.8391 25.4398 12.8862 25.5534 12.9699 25.6371C13.0537 25.7209 13.1673 25.7679 13.2857 25.7679C13.4042 25.7679 13.5177 25.7209 13.6015 25.6371C13.6852 25.5534 13.7323 25.4398 13.7323 25.3214L14.1249 15.9014C14.1292 15.7851 14.1778 15.6748 14.2607 15.5932C14.3437 15.5116 14.4547 15.4647 14.5711 15.4623C14.6875 15.4599 14.8003 15.5021 14.8866 15.5802C14.9729 15.6583 15.026 15.7665 15.0351 15.8825L15.8237 25.3411C15.83 25.4582 15.8823 25.5682 15.9691 25.647C16.056 25.7259 16.1704 25.7674 16.2876 25.7624C16.4049 25.7574 16.5154 25.7065 16.5953 25.6205C16.6751 25.5346 16.7179 25.4206 16.7143 25.3034V15.9108C16.7093 15.7926 16.7514 15.6772 16.8315 15.5901C16.9115 15.503 17.0229 15.4512 17.1411 15.4462C17.2594 15.4412 17.3747 15.4834 17.4618 15.5634C17.549 15.6435 17.6007 15.7549 17.6057 15.8731L18.3943 25.3411C18.3993 25.4593 18.451 25.5707 18.5382 25.6507C18.5813 25.6904 18.6318 25.7211 18.6869 25.7412C18.7419 25.7613 18.8003 25.7704 18.8589 25.7679C18.9174 25.7655 18.9749 25.7515 19.028 25.7268C19.0811 25.7021 19.1289 25.6672 19.1685 25.6241C19.2081 25.5809 19.2389 25.5304 19.259 25.4754C19.2791 25.4203 19.2882 25.3619 19.2857 25.3034V15.9108C19.2807 15.7926 19.3229 15.6772 19.4029 15.5901C19.483 15.503 19.5944 15.4512 19.7126 15.4462C19.8308 15.4412 19.9461 15.4834 20.0333 15.5634C20.1204 15.6435 20.1721 15.7549 20.1771 15.8731L20.9657 25.3316C20.9764 25.4464 21.0302 25.5528 21.1161 25.6296C21.2021 25.7063 21.314 25.7476 21.4292 25.7452C21.5444 25.7428 21.6545 25.6969 21.7372 25.6167C21.8199 25.5365 21.8692 25.4279 21.8751 25.3128L22.2857 15.4642V14.3499Z" fill="#F2E6FC"/>
</svg>
