<svg width="30" height="31" viewBox="0 0 30 31" fill="none" xmlns="http://www.w3.org/2000/svg">
<path d="M15 27.75C8.1125 27.75 2.5 22.1375 2.5 15.25C2.5 8.3625 8.1125 2.75 15 2.75C21.8875 2.75 27.5 7.8 27.5 14C27.5 18.1375 24.1375 21.5 20 21.5H17.7875C17.4375 21.5 17.1625 21.775 17.1625 22.125C17.1625 22.275 17.225 22.4125 17.325 22.5375C17.8375 23.125 18.125 23.8625 18.125 24.625C18.125 25.4538 17.7958 26.2487 17.2097 26.8347C16.6237 27.4208 15.8288 27.75 15 27.75ZM15 5.25C9.4875 5.25 5 9.7375 5 15.25C5 20.7625 9.4875 25.25 15 25.25C15.35 25.25 15.625 24.975 15.625 24.625C15.6211 24.4629 15.559 24.3076 15.45 24.1875C14.9375 23.6125 14.6625 22.875 14.6625 22.125C14.6625 21.2962 14.9917 20.5013 15.5778 19.9153C16.1638 19.3292 16.9587 19 17.7875 19H20C22.7625 19 25 16.7625 25 14C25 9.175 20.5125 5.25 15 5.25Z" fill="#F2E6FC"/>
<path d="M8.125 16.5C9.16053 16.5 10 15.6605 10 14.625C10 13.5895 9.16053 12.75 8.125 12.75C7.08947 12.75 6.25 13.5895 6.25 14.625C6.25 15.6605 7.08947 16.5 8.125 16.5Z" fill="#F2E6FC"/>
<path d="M11.875 11.5C12.9105 11.5 13.75 10.6605 13.75 9.625C13.75 8.58947 12.9105 7.75 11.875 7.75C10.8395 7.75 10 8.58947 10 9.625C10 10.6605 10.8395 11.5 11.875 11.5Z" fill="#F2E6FC"/>
<path d="M18.125 11.5C19.1605 11.5 20 10.6605 20 9.625C20 8.58947 19.1605 7.75 18.125 7.75C17.0895 7.75 16.25 8.58947 16.25 9.625C16.25 10.6605 17.0895 11.5 18.125 11.5Z" fill="#F2E6FC"/>
<path d="M21.875 16.5C22.9105 16.5 23.75 15.6605 23.75 14.625C23.75 13.5895 22.9105 12.75 21.875 12.75C20.8395 12.75 20 13.5895 20 14.625C20 15.6605 20.8395 16.5 21.875 16.5Z" fill="#F2E6FC"/>
</svg>
