<svg width="33" height="33" viewBox="0 0 33 33" fill="none" xmlns="http://www.w3.org/2000/svg">
<path d="M8.5 8.81055V22.1439M13.8333 8.81055V12.8105M19.1667 8.81055V18.1439M24.5 8.81055V15.4772M4.5 5.61055V28.0105C4.5 28.2227 4.58429 28.4262 4.73431 28.5762C4.88434 28.7263 5.08783 28.8105 5.3 28.8105H27.7C27.9122 28.8105 28.1157 28.7263 28.2657 28.5762C28.4157 28.4262 28.5 28.2227 28.5 28.0105V5.61055C28.5 5.39837 28.4157 5.19489 28.2657 5.04486C28.1157 4.89483 27.9122 4.81055 27.7 4.81055H5.3C5.08783 4.81055 4.88434 4.89483 4.73431 5.04486C4.58429 5.19489 4.5 5.39837 4.5 5.61055Z" stroke="white" stroke-width="1.5" stroke-linecap="round" stroke-linejoin="round"/>
</svg>
