<svg width="24" height="24" viewBox="0 0 24 24" fill="none" xmlns="http://www.w3.org/2000/svg">
<g clip-path="url(#clip0_428_915)">
<path d="M19.677 20.1925L13.415 13.9305C12.915 14.3565 12.34 14.6862 11.69 14.9195C11.04 15.1528 10.3867 15.2695 9.73 15.2695C8.12867 15.2695 6.77333 14.7152 5.664 13.6065C4.55467 12.4978 4 11.1428 4 9.5415C4 7.94016 4.554 6.5845 5.662 5.4745C6.77 4.3645 8.12467 3.80883 9.726 3.8075C11.3273 3.80616 12.6833 4.36083 13.794 5.4715C14.9047 6.58216 15.46 7.93783 15.46 9.5385C15.46 10.2332 15.337 10.9055 15.091 11.5555C14.845 12.2055 14.5217 12.7615 14.121 13.2235L20.383 19.4845L19.677 20.1925ZM9.731 14.2685C11.0577 14.2685 12.1777 13.8118 13.091 12.8985C14.0043 11.9852 14.461 10.8648 14.461 9.5375C14.461 8.21016 14.0043 7.09016 13.091 6.1775C12.1777 5.26483 11.0577 4.80816 9.731 4.8075C8.40433 4.80683 7.284 5.2635 6.37 6.1775C5.456 7.0915 4.99933 8.2115 5 9.5375C5.00067 10.8635 5.45733 11.9835 6.37 12.8975C7.28267 13.8115 8.40267 14.2682 9.73 14.2675" fill="black"/>
</g>
<defs>
<clipPath id="clip0_428_915">
<rect width="24" height="24" fill="white"/>
</clipPath>
</defs>
</svg>
