<svg width="26" height="25" viewBox="0 0 26 25" fill="none" xmlns="http://www.w3.org/2000/svg">
<path d="M14.0442 20.8386C13.881 20.9558 13.6851 21.0188 13.4842 21.0188C13.2832 21.0188 13.0874 20.9558 12.9242 20.8386C8.09516 17.3966 2.97016 10.3166 8.15116 5.20056C9.5735 3.8014 11.489 3.01768 13.4842 3.01856C15.4842 3.01856 17.4032 3.80356 18.8172 5.19956C23.9982 10.3156 18.8732 17.3946 14.0442 20.8386Z" stroke="#514F6E" stroke-width="1.5" stroke-linecap="round" stroke-linejoin="round"/>
<path d="M13.4844 12.0186C14.0148 12.0186 14.5235 11.8078 14.8986 11.4328C15.2737 11.0577 15.4844 10.549 15.4844 10.0186C15.4844 9.48812 15.2737 8.97941 14.8986 8.60434C14.5235 8.22927 14.0148 8.01855 13.4844 8.01855C12.9539 8.01855 12.4452 8.22927 12.0702 8.60434C11.6951 8.97941 11.4844 9.48812 11.4844 10.0186C11.4844 10.549 11.6951 11.0577 12.0702 11.4328C12.4452 11.8078 12.9539 12.0186 13.4844 12.0186Z" stroke="#514F6E" stroke-width="1.5" stroke-linecap="round" stroke-linejoin="round"/>
</svg>
